<?xml version="1.0" encoding="utf-8"?>
<svg id="master-artboard" viewBox="0 0 606.8480834960938 131.3600311279297" xmlns="http://www.w3.org/2000/svg" width="606.8480834960938px" height="131.3600311279297px" version="1.1" style="shape-rendering:geometricPrecision; text-rendering:geometricPrecision; image-rendering:optimizeQuality; fill-rule:evenodd; clip-rule:evenodd" xmlns:xlink="http://www.w3.org/1999/xlink"><rect id="ee-background" x="0" y="0" width="606.8480834960938" height="131.3600311279297" style="fill: white; fill-opacity: 0; pointer-events: none;"/>
 
 <metadata id="CorelCorpID_0Corel-Layer"/>
<g transform="matrix(1.2760417461395264, 0, 0, 1.2760417461395264, -348.2773132324219, -427.5840187072754)"><metadata id="metadata541487">
    
  </metadata><linearGradient spreadMethod="pad" y2="30%" x2="-10%" y1="120%" x1="30%" id="3d_gradient2-logo-749fae01-3256-4f45-8e2e-0e384a5c7d80">
    <stop id="stop541462" stop-opacity="1" stop-color="#ffffff" offset="0%"/>
    <stop id="stop541464" stop-opacity="1" stop-color="#000000" offset="100%"/>
  </linearGradient><linearGradient gradientTransform="rotate(-30)" spreadMethod="pad" y2="30%" x2="-10%" y1="120%" x1="30%" id="3d_gradient3-logo-749fae01-3256-4f45-8e2e-0e384a5c7d80">
    <stop id="stop541467" stop-opacity="1" stop-color="#ffffff" offset="0%"/>
    <stop id="stop541469" stop-opacity="1" stop-color="#cccccc" offset="50%"/>
    <stop id="stop541471" stop-opacity="1" stop-color="#000000" offset="100%"/>
  </linearGradient><g id="logo-group">
    <image id="container" x="272" y="144" width="480" height="480" style="display: none;" transform="translate(0 0)" xlink:href=""/>
    <g id="logo-center" transform="translate(1.1368683772161603e-13 0)">
      <image id="icon_container" x="0" y="0" style="display: none;" xlink:href=""/>
      <g id="slogan" style="font-style:normal;font-weight:300;font-size:32px;line-height:1;font-family:'Montserrat Light Alt1';font-variant-ligatures:none;text-align:center;text-anchor:middle" transform="translate(0 0)"/>
      <g id="title" style="font-style:normal;font-weight:normal;font-size:72px;line-height:1;font-family:'Brandmark Sans 25';font-variant-ligatures:normal;text-align:center;text-anchor:middle" transform="translate(0 0)">
        <path id="path541490" style="font-style:normal;font-weight:normal;font-size:72px;line-height:1;font-family:'Brandmark Sans 25';font-variant-ligatures:normal;text-align:center;text-anchor:middle" d="m 389.45825,-50.4 h -7.128 c -0.792,0 -1.512,0.72 -1.512,1.512 v 29.52 c 0,5.112 -4.104,9.216 -9.144,9.216 h -26.064 c -2.304,0 -4.32,-1.656 -4.824,-3.888 -0.144,-0.648 -0.792,-1.08 -1.512,-1.08 h -7.2 c -0.864,0 -1.584,0.792 -1.512,1.656 0.864,7.56 7.272,13.464 15.048,13.464 h 26.064 c 10.656,0 19.296,-8.64 19.296,-19.368 v -29.52 c 0,-0.864 -0.648,-1.512 -1.512,-1.512 z" stroke-width="0" stroke-linejoin="miter" stroke-miterlimit="2" fill="#5a6d55" stroke="#5a6d55" transform="translate(0 310.05028000000004) translate(277.45374477499996 52.44799999999999) scale(1.29) translate(-330.55728 50.4)"/>
        <path id="path541492" style="font-style:normal;font-weight:normal;font-size:72px;line-height:1;font-family:'Brandmark Sans 25';font-variant-ligatures:normal;text-align:center;text-anchor:middle" d="m 463.95238,-50.4 h -7.12801 c -0.864,0 -1.512,0.72 -1.512,1.512 v 29.52 c 0,5.112 -4.104,9.216 -9.21599,9.216 h -25.84801 c -5.112,0 -9.216,-4.104 -9.216,-9.216 v -29.52 c 0,-0.864 -0.648,-1.512 -1.512,-1.512 h -7.12799 c -0.79201,0 -1.512,0.648 -1.512,1.512 v 29.52 c 0,10.656 8.71199,19.368 19.36799,19.368 h 25.84801 c 10.72799,0 19.368,-8.64 19.368,-19.368 v -29.52 c 0,-0.864 -0.64801,-1.512 -1.512,-1.512 z" stroke-width="0" stroke-linejoin="miter" stroke-miterlimit="2" fill="#687b63" stroke="#687b63" transform="translate(0 310.05028000000004) translate(368.17054377499994 52.44799999999999) scale(1.29) translate(-400.88038 50.4)"/>
        <path id="path541494" style="font-style:normal;font-weight:normal;font-size:72px;line-height:1;font-family:'Brandmark Sans 25';font-variant-ligatures:normal;text-align:center;text-anchor:middle" d="m 539.279,-50.4 h -7.128 c -0.864,0 -1.584,0.648 -1.584,1.512 v 39.744 c -5.616,0 -11.448,-9.072 -17.064,-17.784 -7.488,-11.52 -15.192,-23.472 -27.216,-23.472 h -8.64 c -0.792,0 -1.512,0.648 -1.512,1.512 v 47.376 c 0,0.792 0.72,1.512 1.512,1.512 h 7.128 c 0.864,0 1.512,-0.72 1.512,-1.512 v -39.744 c 7.056,0 13.392,9.864 19.512,19.296 6.912,10.8 14.112,21.96 24.768,21.96 h 8.712 c 0.792,0 1.512,-0.72 1.512,-1.512 v -47.376 c 0,-0.864 -0.72,-1.512 -1.512,-1.512 z" stroke-width="0" stroke-linejoin="miter" stroke-miterlimit="2" fill="#768971" stroke="#768971" transform="translate(0 310.05028000000004) translate(465.2490035749999 52.44799999999999) scale(1.29) translate(-476.135 50.4)"/>
        <path id="path541496" style="font-style:normal;font-weight:normal;font-size:72px;line-height:1;font-family:'Brandmark Sans 25';font-variant-ligatures:normal;text-align:center;text-anchor:middle" d="m 607.57775,-50.4 h -57.96 c -0.792,0 -1.512,0.648 -1.512,1.512 v 7.128 c 0,0.864 0.72,1.512 1.512,1.512 h 23.904 v 38.736 c 0,0.792 0.648,1.512 1.512,1.512 h 7.128 c 0.864,0 1.512,-0.72 1.512,-1.512 v -38.736 h 23.904 c 0.792,0 1.512,-0.648 1.512,-1.512 v -7.128 c 0,-0.864 -0.72,-1.512 -1.512,-1.512 z" stroke-width="0" stroke-linejoin="miter" stroke-miterlimit="2" fill="#849780" stroke="#849780" transform="translate(0 310.05028000000004) translate(558.0912710749999 52.44799999999999) scale(1.29) translate(-548.10575 50.4)"/>
        <path id="path541498" style="font-style:normal;font-weight:normal;font-size:72px;line-height:1;font-family:'Brandmark Sans 25';font-variant-ligatures:normal;text-align:center;text-anchor:middle" d="m 672.04925,-2.232 -21.672,-41.832 c -2.232,-4.32 -6.408,-7.416 -11.232,-7.848 -5.76,-0.504 -11.016,2.448 -13.608,7.488 l -21.888,42.192 c -0.504,1.008 0.216,2.232 1.368,2.232 h 8.064 c 0.576,0 1.08,-0.288 1.368,-0.792 l 20.088,-38.952 c 0.936,-1.8 2.664,-2.016 3.312,-2.016 0.648,0 2.376,0.216 3.312,2.016 l 20.088,38.952 c 0.288,0.504 0.792,0.792 1.368,0.792 h 8.064 c 1.152,0 1.872,-1.224 1.368,-2.232 z" stroke-width="0" stroke-linejoin="miter" stroke-miterlimit="2" fill="#92a58e" stroke="#92a58e" transform="translate(0 310.05028000000004) translate(629.5316516749999 50.425709569999995) scale(1.29) translate(-603.48589 51.967667)"/>
        <path id="path541500" style="font-style:normal;font-weight:normal;font-size:72px;line-height:1;font-family:'Brandmark Sans 25';font-variant-ligatures:normal;text-align:center;text-anchor:middle" d="m 687.7655,-50.4 h -7.128 c -0.792,0 -1.512,0.648 -1.512,1.512 v 47.376 c 0,0.792 0.72,1.512 1.512,1.512 h 7.128 c 0.864,0 1.512,-0.72 1.512,-1.512 v -47.376 c 0,-0.864 -0.648,-1.512 -1.512,-1.512 z m -13.176,-5.976 c -0.648,0.72 -0.216,1.656 0.72,1.656 h 6.696 c 1.224,0 2.376,-0.432 3.168,-1.368 l 8.712,-9.72 c 0.648,-0.72 0.216,-1.656 -0.72,-1.656 h -6.696 c -1.224,0 -2.376,0.432 -3.168,1.368 z" stroke-width="0" stroke-linejoin="miter" stroke-miterlimit="2" fill="#a0b39c" stroke="#a0b39c" transform="translate(0 310.05028000000004) translate(720.8561954749998 30.43544) scale(1.29) translate(-674.28011 67.464)"/>
      </g>
      <image id="icon" x="0" y="0" style="display: none;" xlink:href=""/>
    </g>
  </g></g></svg>